<svg width="0" height="0" xmlns="http://www.w3.org/2000/svg">
<symbol id="circleIcon" viewBox="0 0 42 42" fill="none">
<path fill="#95E1D3" d="M21 26.372A5.372 5.372 0 1 1 26.373 21 5.39 5.39 0 0 1 21 26.372Zm0-8.995a3.623 3.623 0 1 0 0 7.246 3.623 3.623 0 0 0 0-7.246Z"/>
<path fill="#95E1D3" d="M21 32.375a11.375 11.375 0 1 1 0-22.75 11.375 11.375 0 0 1 0 22.75Zm0-21A9.625 9.625 0 1 0 30.625 21 9.642 9.642 0 0 0 21 11.375Z"/>
<path fill="#95E1D3" d="M21 38.377A17.378 17.378 0 1 1 38.378 21 17.395 17.395 0 0 1 21 38.377Zm0-33.005a15.627 15.627 0 1 0 0 31.255 15.627 15.627 0 0 0 0-31.255Z"/>
</symbol>
</svg>
